PathFileType	4	(X/Y/Z)	s07c0203.trc
DataRate	CameraRate	NumFrames	NumMarkers	Units	OrigDataRate	OrigDataStartFrame	OrigNumFrames
200	200	4	48	mm	200	1250	2000
Frame#	Time	racr			lacr			c7			jug			rlel			rdr			llel			ldr			s2			lic			ric			lasi			rasi			rpsi			lpsi			rgt			lgt			rth1			rth2			rth3			rth4			rlfc			rmfc			rsh1			rsh2			rsh3			rsh4			rlmal			rcal			rtoe			rmt5			lth1			lth2			lth4			lth3			llfc			lmfc			lsh1			lsh2			lsh3			lsh4			llmal			lcal			ltoe			lmt5			SBIKE			LBIKE			RBIKE			
		X1	Y1	Z1	X2	Y2	Z2	X3	Y3	Z3	X4	Y4	Z4	X5	Y5	Z5	X6	Y6	Z6	X7	Y7	Z7	X8	Y8	Z8	X9	Y9	Z9	X10	Y10	Z10	X11	Y11	Z11	X12	Y12	Z12	X13	Y13	Z13	X14	Y14	Z14	X15	Y15	Z15	X16	Y16	Z16	X17	Y17	Z17	X18	Y18	Z18	X19	Y19	Z19	X20	Y20	Z20	X21	Y21	Z21	X22	Y22	Z22	X23	Y23	Z23	X24	Y24	Z24	X25	Y25	Z25	X26	Y26	Z26	X27	Y27	Z27	X28	Y28	Z28	X29	Y29	Z29	X30	Y30	Z30	X31	Y31	Z31	X32	Y32	Z32	X33	Y33	Z33	X34	Y34	Z34	X35	Y35	Z35	X36	Y36	Z36	X37	Y37	Z37	X38	Y38	Z38	X39	Y39	Z39	X40	Y40	Z40	X41	Y41	Z41	X42	Y42	Z42	X43	Y43	Z43	X44	Y44	Z44	X45	Y45	Z45	X46	Y46	Z46	X47	Y47	Z47	X48	Y48	Z48	
1250	6.2500	498.283603	1389.541472	-73.980191	520.178923	1386.282363	-366.443852	482.588610	1444.012563	-218.874664	428.085774	1299.562912	-231.023810	457.988038	1074.519470	84.683266	689.887798	950.327808	-50.315636	461.497981	1103.385094	-566.498771	687.058149	944.200703	-452.310065	-88.841236	1201.661444	-254.788949	63.776643	1264.058952	-402.688813	75.326611	1233.989465	-109.323402	93.224591	1183.246909	-381.969542	101.313799	1193.140950	-131.796737	-59.548387	1239.722578	-204.236459	-54.289717	1253.523993	-312.185501	44.114056	1125.429807	-67.579297	7.689119	1099.452955	-429.381703	191.236808	1071.375474	-77.380739	276.002588	1053.393746	-93.669166	343.409253	1001.113658	-93.847710	287.266317	1083.790664	-111.413921	444.627325	914.057568	-133.190573	426.797792	898.134066	-237.842216	350.757199	813.931003	-103.214154	305.315096	739.313580	-111.361708	230.230657	694.882238	-100.360233	315.706227	726.998535	-150.098805	131.088997	606.396911	-89.225981	62.905161	639.133947	-119.917639	183.293042	373.709295	-129.690254	121.915471	429.964060	-59.226209	63.009940	982.560746	-435.649912	125.118196	919.960598	-437.744536	156.846566	937.935793	-433.025620	148.196952	834.525055	-428.547844	234.488983	684.281053	-394.158789	218.789948	665.329345	-302.835802	197.956958	542.355410	-418.793484	203.195656	458.976983	-398.485021	166.615282	376.232861	-404.634480	204.849281	462.056895	-356.135417	133.484197	241.464764	-399.890003	70.082130	192.536529	-366.641079	359.066673	219.529445	-364.024935	283.755637	180.202499	-427.800529	-260.767330	963.165416	-239.354589	-82.792698	78.934114	-436.823989	-82.708809	79.528578	-39.279956	
1251	6.2550	496.195206	1391.509568	-71.161600	522.386566	1383.710209	-363.054874	482.641543	1443.270014	-216.988062	428.205534	1298.982441	-228.043222	456.298699	1074.463351	83.305955	690.218998	950.771191	-49.758486	462.974401	1103.531892	-567.366966	687.374443	944.061258	-452.394279	-88.411268	1201.193296	-258.438764	65.577207	1260.360842	-402.268652	73.469910	1235.789577	-111.092170	95.514214	1180.965831	-382.778038	99.954789	1194.459931	-132.683181	-61.710654	1239.670509	-207.288163	-52.911573	1252.415057	-316.085942	42.572798	1127.669610	-68.670602	9.439791	1097.415959	-430.331818	190.566032	1076.145712	-77.605261	276.034505	1060.119827	-93.631512	344.106402	1008.927329	-93.840371	286.687893	1089.975457	-112.389892	447.201024	923.855979	-133.084756	429.862627	907.671414	-238.354306	354.818449	823.292592	-103.354260	309.474728	748.144475	-112.123708	234.574336	703.491300	-101.174542	319.872378	736.008561	-150.861482	135.430881	614.111257	-89.985134	65.890378	644.729808	-120.320831	193.994049	383.040003	-130.095074	131.067621	437.469072	-59.678493	62.477880	980.396707	-436.522790	123.446795	916.510184	-438.475364	155.453921	933.901678	-433.234756	144.719597	830.694054	-429.288225	228.430587	679.169157	-393.957274	211.816721	660.286751	-302.785630	191.191671	537.579283	-418.763082	196.001160	454.121667	-398.321677	159.026989	371.512474	-404.411473	197.655865	457.179057	-355.972081	125.455050	237.076616	-399.915659	61.552209	188.843650	-366.398431	350.802401	212.661926	-363.912032	275.077034	174.143115	-427.525930	-260.782762	963.155075	-239.394185	-82.802685	78.964664	-436.816892	-82.684016	79.562734	-39.297082	
1252	6.2600	494.020522	1393.388820	-68.513197	524.614254	1380.932912	-359.647776	482.831801	1442.474612	-215.298355	428.308991	1298.097702	-225.081999	454.814463	1074.505679	81.959255	690.515675	951.207911	-49.350301	464.565070	1103.514316	-567.983066	687.772290	943.913839	-452.562702	-88.243809	1200.746695	-261.995912	64.088499	1253.445500	-391.672936	71.329985	1237.831576	-112.694089	97.809722	1178.926963	-383.781602	98.545293	1195.772553	-133.496810	-61.078600	1240.432266	-211.931774	-51.916461	1251.604417	-319.682652	40.918057	1129.988113	-69.617703	11.081644	1095.555942	-431.247171	189.706675	1080.941945	-78.187833	275.338083	1066.994966	-93.013419	344.565576	1016.785923	-93.894551	285.488696	1096.576074	-113.200430	449.379999	933.201809	-133.626688	432.495185	916.946192	-238.767573	358.358816	832.010932	-104.295576	313.436092	756.828722	-112.686442	238.878032	711.782372	-101.735991	323.847102	744.672335	-151.611764	139.736104	621.213215	-90.456753	68.764500	649.461482	-120.729255	205.565128	392.494418	-129.690447	140.554669	444.329808	-59.963284	61.999194	978.466331	-437.338159	121.857780	913.577416	-439.261127	154.146731	930.473455	-433.462851	141.637009	827.356997	-430.208700	222.836714	674.657274	-393.979974	206.137602	656.223218	-303.296794	184.890721	533.503962	-418.788118	189.234855	450.011398	-398.251670	151.712406	367.697179	-404.410269	190.544154	453.093926	-355.650259	117.133352	233.445542	-399.858790	52.819710	186.047135	-366.317328	342.364245	206.253266	-363.727068	266.110892	168.688080	-427.384458	-260.806246	963.150780	-239.451914	-82.803823	78.954403	-436.826081	-82.681838	79.565460	-39.310675	
1253	6.2650	491.929828	1395.056162	-65.987761	526.822999	1377.943638	-356.247085	483.121235	1441.613380	-213.513466	428.407669	1297.176987	-222.018590	453.538375	1074.528419	80.680698	691.006479	951.630433	-49.451377	466.005521	1103.492761	-569.001124	688.233720	943.783249	-452.886826	-88.134754	1200.379454	-265.033872	66.717267	1250.986380	-393.696013	68.938829	1239.995090	-113.612397	99.642819	1176.785973	-384.212947	96.995565	1197.052395	-134.243052	-61.763222	1240.241335	-215.643580	-51.061206	1250.673493	-322.926354	39.272084	1132.370493	-70.413348	12.530092	1093.752190	-432.040306	188.513159	1085.682209	-78.813529	274.364150	1073.182411	-93.733933	344.630520	1024.279694	-94.055233	284.114269	1102.747512	-113.996487	451.903186	942.482332	-133.693914	434.807052	925.938845	-239.145870	361.661072	840.773998	-104.689612	317.355730	765.100736	-112.934971	243.090765	719.695611	-102.102621	327.630698	752.713017	-152.496065	143.734462	627.936453	-90.817123	71.949076	653.343367	-120.798193	216.788757	400.845011	-130.127359	150.260470	450.396290	-60.276151	61.518968	976.882171	-438.194077	120.429290	911.094495	-440.106666	152.967728	927.368458	-433.766542	138.843896	824.515484	-431.215509	218.010963	670.918854	-394.215886	200.872798	652.651385	-303.240750	179.288876	530.122882	-418.872002	182.710426	446.685592	-398.294821	144.531504	364.553080	-404.551444	183.907583	449.683401	-355.662900	108.705815	230.611868	-399.896729	43.883706	184.129272	-366.362171	333.699289	200.195774	-363.511014	256.998116	163.791778	-427.218122	-260.844692	963.143029	-239.550460	-82.818734	78.946584	-436.835248	-82.679235	79.596299	-39.298970	
